Coordinates
version=1
nRows=16
nColumns=63
inDegrees=yes

Units are S.I. units (second, meters, Newtons, ...)
If the header above contains a line with 'inDegrees', this indicates whether rotational values are in degrees (yes) or radians (no).

endheader
time	pelvis_tilt	pelvis_list	pelvis_rotation	pelvis_tx	pelvis_ty	pelvis_tz	hip_flexion_r	hip_adduction_r	hip_rotation_r	knee_angle_r	knee_angle_r_beta	ankle_angle_r	subtalar_angle_r	mtp_angle_r	hip_flexion_l	hip_adduction_l	hip_rotation_l	knee_angle_l	knee_angle_l_beta	ankle_angle_l	subtalar_angle_l	mtp_angle_l	L5_S1_Flex_Ext	L5_S1_Lat_Bending	L5_S1_axial_rotation	L4_L5_Flex_Ext	L4_L5_Lat_Bending	L4_L5_axial_rotation	L3_L4_Flex_Ext	L3_L4_Lat_Bending	L3_L4_axial_rotation	L2_L3_Flex_Ext	L2_L3_Lat_Bending	L2_L3_axial_rotation	L1_L2_Flex_Ext	L1_L2_Lat_Bending	L1_L2_axial_rotation	L1_T12_Flex_Ext	L1_T12_Lat_Bending	L1_T12_axial_rotation	Abs_r3	Abs_r2	Abs_r1	Abs_t1	Abs_t2	neck_flexion	neck_bending	neck_rotation	arm_flex_r	arm_add_r	arm_rot_r	elbow_flex_r	pro_sup_r	wrist_flex_r	wrist_dev_r	arm_flex_l	arm_add_l	arm_rot_l	elbow_flex_l	pro_sup_l	wrist_flex_l	wrist_dev_l
4.200000	-1.012491	-6.336251	96.667753	0.199976	0.912672	0.410478	1.768319	-2.759018	-11.489154	16.953928	0.295902	33.727846	4.268305	0.000000	0.470364	1.311720	-12.852430	13.157953	0.229650	27.335990	14.530690	0.000000	-0.145622	-0.066543	-1.664109	-0.270434	-0.088502	-1.768116	-0.239242	-0.161792	-1.768116	-0.166431	-0.161792	-1.456095	-0.135224	-0.135694	-1.352089	-0.083208	-0.103075	-1.248082	-1.040162	-0.752747	-9.255276	0.000000	0.000000	-1.142978	0.339398	-1.985958	192.223477	-163.559060	251.951044	28.775095	73.956470	-5.115323	1.054888	8.941779	-14.120268	70.138651	23.371842	86.488982	-12.392555	1.641164
4.216667	-1.081352	-6.021846	96.877025	0.199651	0.912375	0.408411	1.237079	-2.781873	-11.607122	16.787563	0.292998	34.145896	4.484820	0.000000	-0.081902	1.413524	-12.043325	12.883629	0.224862	27.443229	13.912119	0.000000	-0.133247	-0.079319	-1.715064	-0.247453	-0.105495	-1.822255	-0.218912	-0.192857	-1.822255	-0.152288	-0.192857	-1.500681	-0.123733	-0.161748	-1.393489	-0.076137	-0.122866	-1.286298	-0.951772	-0.897275	-9.538671	0.000000	0.000000	-1.315106	0.413025	-1.931591	192.725070	-164.383387	253.909248	27.118996	74.127294	-4.367494	0.664399	8.913684	-13.317643	70.993619	21.493049	86.342526	-11.956445	0.789509
4.233333	-1.138557	-5.742715	96.991962	0.199413	0.912542	0.406418	0.720538	-2.786960	-11.656003	16.553288	0.288909	34.323181	4.656991	0.000000	-0.660203	1.531459	-11.219676	12.464656	0.217549	27.390236	13.182466	0.000000	-0.111414	-0.089120	-1.762904	-0.206907	-0.118530	-1.873086	-0.183042	-0.216687	-1.873086	-0.127335	-0.216687	-1.542541	-0.103459	-0.181734	-1.432360	-0.063662	-0.138047	-1.322178	-0.795818	-1.008147	-9.804744	0.000000	0.000000	-1.554293	0.521618	-1.762132	192.942606	-164.652904	255.120248	26.613925	74.246304	-3.768670	0.173846	8.457103	-13.013823	70.812683	20.744222	85.835018	-11.477881	0.071816
4.250000	-1.185871	-5.510810	97.013670	0.199267	0.913161	0.404650	0.250756	-2.779952	-11.626808	16.279620	0.284133	34.252362	4.755159	0.000000	-1.232180	1.664103	-10.436636	11.924731	0.208126	27.186765	12.394134	0.000000	-0.082329	-0.095771	-1.805020	-0.152893	-0.127376	-1.917834	-0.135258	-0.232859	-1.917834	-0.094093	-0.232859	-1.579393	-0.076450	-0.195297	-1.466579	-0.047043	-0.148350	-1.353765	-0.588066	-1.083386	-10.038982	0.000000	0.000000	-1.804833	0.635438	-1.466050	192.865282	-164.432627	255.365133	27.266899	74.343645	-3.253395	-0.218618	7.700710	-13.208317	69.616949	21.114473	85.105151	-10.881644	-0.185199
4.266667	-1.213888	-5.330934	96.973641	0.199182	0.914190	0.403210	-0.166447	-2.761385	-11.610557	15.969143	0.278714	33.964782	4.858627	0.000000	-1.772618	1.796787	-9.713420	11.288629	0.197024	26.841999	11.609954	0.000000	-0.049183	-0.098528	-1.836768	-0.091338	-0.131042	-1.951566	-0.080803	-0.239561	-1.951566	-0.056211	-0.239561	-1.607172	-0.045671	-0.200918	-1.492374	-0.028103	-0.152620	-1.377576	-0.351309	-1.114569	-10.215552	0.000000	0.000000	-1.987181	0.741075	-1.097395	192.456483	-163.801901	254.524624	28.998498	74.452269	-3.030673	-0.513152	6.860619	-13.849159	67.669230	22.410072	84.414886	-10.301275	0.038220
4.283333	-1.230221	-5.207576	96.863611	0.199205	0.915522	0.402139	-0.511818	-2.740162	-11.597311	15.644762	0.273053	33.509264	4.979586	0.000000	-2.265964	1.931153	-9.105479	10.575673	0.184580	26.380836	10.889156	0.000000	-0.013717	-0.099329	-1.854710	-0.025473	-0.132107	-1.970629	-0.022535	-0.241508	-1.970629	-0.015677	-0.241508	-1.622871	-0.012737	-0.202551	-1.506952	-0.007838	-0.153860	-1.391032	-0.097976	-1.123627	-10.315339	0.000000	0.000000	-2.030893	0.834865	-0.684185	191.757208	-162.869166	252.575077	31.635805	74.663683	-3.077210	-0.508277	6.071763	-14.817480	65.232445	24.345526	83.886358	-9.721150	0.696330
4.300000	-1.249484	-5.130015	96.692053	0.199377	0.917016	0.401447	-0.791764	-2.724477	-11.560347	15.313550	0.267272	32.944136	5.085305	0.000000	-2.711686	2.074784	-8.602671	9.813384	0.171276	25.835892	10.228463	0.000000	0.020284	-0.101862	-1.856841	0.037669	-0.135476	-1.972893	0.033324	-0.247667	-1.972893	0.023182	-0.247667	-1.624735	0.018835	-0.207717	-1.508683	0.011590	-0.157784	-1.392630	0.144884	-1.152281	-10.327190	0.000000	0.000000	-1.853804	0.945233	-0.313369	190.827597	-161.756956	249.630035	34.905960	74.897182	-3.350163	-0.209476	5.431922	-15.986230	62.698396	26.636617	83.549081	-9.265954	1.625680
4.316667	-1.277222	-5.097421	96.437746	0.199748	0.918481	0.401114	-0.991249	-2.720125	-11.468889	15.000214	0.261803	32.350323	5.189955	0.000000	-3.104193	2.228444	-8.247824	9.026758	0.157547	25.255446	9.656569	0.000000	0.051733	-0.107137	-1.840416	0.096073	-0.142492	-1.955442	0.084992	-0.260492	-1.955442	0.059125	-0.260492	-1.610364	0.048039	-0.218473	-1.495338	0.029560	-0.165955	-1.380312	0.369522	-1.211951	-10.235841	0.000000	0.000000	-1.400138	1.069243	0.004804	189.766666	-160.557653	245.968413	38.557004	75.232802	-3.818187	0.476900	4.919804	-17.245111	60.372572	29.128973	83.406057	-8.970542	2.692004
4.333333	-1.317371	-5.113232	96.086670	0.200314	0.919746	0.401123	-1.091978	-2.735119	-11.297323	14.730486	0.257095	31.796541	5.320877	0.000000	-3.423725	2.390681	-8.080242	8.265207	0.144255	24.700516	9.211357	0.000000	0.080156	-0.114798	-1.803694	0.148857	-0.152681	-1.916425	0.131688	-0.279119	-1.916425	0.091610	-0.279119	-1.578233	0.074433	-0.234095	-1.465502	0.045801	-0.177821	-1.352771	0.572544	-1.298613	-10.031608	0.000000	0.000000	-0.623696	1.187633	0.253397	188.623007	-159.325430	241.819839	42.434921	75.869981	-4.345446	1.613593	4.393085	-18.554406	58.065078	31.889998	83.458045	-8.692983	3.896189
4.350000	-1.330624	-5.165057	95.648634	0.201009	0.920793	0.401418	-1.120424	-2.728420	-11.061465	14.473661	0.252613	31.272009	5.497633	0.000000	-3.679438	2.523688	-8.090514	7.541457	0.131623	24.195240	8.879836	0.000000	0.104442	-0.118324	-1.745510	0.193958	-0.157371	-1.854604	0.171587	-0.287694	-1.854604	0.119366	-0.287694	-1.527321	0.096984	-0.241287	-1.418227	0.059678	-0.183284	-1.309132	0.746015	-1.338508	-9.708001	0.000000	0.000000	0.451230	1.274943	0.454620	187.486022	-158.051198	237.881030	46.419938	76.219270	-5.066788	3.013637	3.827284	-19.843720	56.103176	34.908282	83.423428	-8.685251	5.015552
4.366667	-1.306670	-5.267215	95.099415	0.201801	0.921610	0.401960	-1.067591	-2.690864	-10.720588	14.206758	0.247955	30.772603	5.726798	0.000000	-3.851519	2.618896	-8.336356	6.875216	0.119995	23.764277	8.704731	0.000000	0.126757	-0.114795	-1.660109	0.235400	-0.152677	-1.763866	0.208248	-0.279113	-1.763866	0.144870	-0.279113	-1.452595	0.117706	-0.234090	-1.348839	0.072429	-0.177817	-1.245082	0.905410	-1.298584	-9.233028	0.000000	0.000000	1.801811	1.303258	0.595008	186.283088	-156.740650	233.910286	50.517928	76.800945	-5.705345	4.711067	3.070879	-21.076121	53.915104	38.333020	83.314127	-8.630798	6.078839
4.383333	-1.247054	-5.411046	94.494290	0.202640	0.922288	0.402783	-0.948775	-2.624793	-10.373368	13.928775	0.243103	30.285875	6.034468	0.000000	-3.944473	2.678862	-8.729775	6.260290	0.109263	23.380243	8.638994	0.000000	0.145329	-0.103895	-1.564084	0.269890	-0.138180	-1.661840	0.238761	-0.252609	-1.661840	0.166096	-0.252609	-1.368574	0.134952	-0.211862	-1.270818	0.083041	-0.160933	-1.173063	1.038069	-1.175276	-8.698968	0.000000	0.000000	3.354690	1.266394	0.754801	185.123319	-155.423454	230.365102	54.673850	77.132961	-6.404188	6.611350	2.038843	-22.331926	50.990865	42.337946	83.458601	-8.622077	7.124437
4.400000	-1.155326	-5.603362	93.800331	0.203532	0.922848	0.403834	-0.766341	-2.532059	-9.988825	13.613451	0.237600	29.811352	6.430349	0.000000	-3.949994	2.706913	-9.318733	5.707740	0.099619	23.065831	8.690626	0.000000	0.161822	-0.085377	-1.449865	0.300520	-0.113552	-1.540482	0.265858	-0.207586	-1.540482	0.184947	-0.207586	-1.268632	0.150268	-0.174101	-1.178016	0.092465	-0.132249	-1.087399	1.155880	-0.965805	-8.063717	0.000000	0.000000	5.053976	1.176042	0.946671	183.911596	-154.118658	226.877371	58.907530	77.412239	-7.074871	8.619249	0.725258	-23.527638	47.478882	46.852757	83.730110	-8.537886	8.022794
4.416667	-1.050290	-5.827735	93.040511	0.204483	0.923326	0.405111	-0.544283	-2.425082	-9.564798	13.251493	0.231282	29.353025	6.887614	0.000000	-3.880027	2.712889	-10.100780	5.222729	0.091154	22.842091	8.894962	0.000000	0.174506	-0.062444	-1.322714	0.324075	-0.083051	-1.405383	0.286696	-0.151827	-1.405383	0.199443	-0.151827	-1.157375	0.162046	-0.127336	-1.074705	0.099713	-0.096726	-0.992035	1.246479	-0.706382	-7.356538	0.000000	0.000000	6.837282	1.057943	1.185194	182.682244	-152.866324	223.457581	63.127096	77.540501	-7.723157	10.565142	-0.790563	-24.643521	43.620697	51.712400	84.141139	-8.263901	8.758127
4.433333	-0.954412	-6.068092	92.236898	0.205516	0.923731	0.406614	-0.300764	-2.323771	-9.138608	12.850181	0.224278	28.934215	7.428381	0.000000	-3.750009	2.714351	-11.029303	4.801312	0.083799	22.708881	9.215775	0.000000	0.182111	-0.039424	-1.182832	0.338198	-0.052434	-1.256759	0.299190	-0.095856	-1.256759	0.208135	-0.095856	-1.034978	0.169108	-0.080394	-0.961051	0.104058	-0.061068	-0.887124	1.300801	-0.445973	-6.578556	0.000000	0.000000	8.642072	0.931862	1.433036	181.436607	-151.741030	220.053345	67.200477	77.535364	-8.245831	12.454449	-2.394291	-25.640598	39.578376	56.673145	84.739025	-7.546753	9.471815
4.450000	-0.876558	-6.323947	91.446309	0.206612	0.924006	0.408272	-0.041997	-2.230431	-8.704506	12.418824	0.216749	28.578153	7.983725	0.000000	-3.536857	2.705115	-12.113002	4.497764	0.078501	22.717825	9.713839	0.000000	0.187545	-0.019514	-1.050879	0.348290	-0.025953	-1.116559	0.308118	-0.047445	-1.116559	0.214345	-0.047445	-0.919519	0.174154	-0.039792	-0.853839	0.107163	-0.030226	-0.788159	1.339616	-0.220741	-5.844673	0.000000	0.000000	10.429170	0.835721	1.693198	180.320016	-150.806251	216.991694	70.858793	77.432898	-8.692707	14.062546	-4.084881	-26.461950	35.419328	61.469199	85.504965	-6.481985	10.077738
